# xmcd
#
# Track frame offsets: 
#        150
#        21044
#        42051
#        71803
#        95460
#        114622
#        139658
#        158687
#        178385
#        195168
#        209367
#        239862
#        257045
#        278789
#        306966
#
# Disc length: 4392 seconds
#
# Revision: 1
# Processed by: cddbd v1.5.2PL0 Copyright (c) Steve Scherf et al.
# Submitted via: ExactAudioCopy v1.3
#
DISCID=d911260f
DTITLE=Bridget Kelly Band - Back In The Blues 
DYEAR=2013
DGENRE=Electric Blues
TTITLE0=Why I Sing The Blues
TTITLE1=Windchase Blues
TTITLE2=Mr. Blues
TTITLE3=Cold Stone Treatment
TTITLE4=Lets Talk About Love
TTITLE5=To Die for Love
TTITLE6=Nuthin' Left
TTITLE7=Texas Tea
TTITLE8=Nine After Midnight
TTITLE9=Blue Cadillac
TTITLE10=Bring My Baby Back
TTITLE11=Without Your Love
TTITLE12=All Dressed Up
TTITLE13=Sad River
TTITLE14=Rockin' The Blues
EXTD=
EXTT0=
EXTT1=
EXTT2=
EXTT3=
EXTT4=
EXTT5=
EXTT6=
EXTT7=
EXTT8=
EXTT9=
EXTT10=
EXTT11=
EXTT12=
EXTT13=
EXTT14=
PLAYORDER=
